STARTFONT 2.1
FONT -FontForge-Ubuntu-Book-R-Normal--38-360-75-75-P-200-ISO10646-1
SIZE 36 75 75
FONTBOUNDINGBOX 37 37 -3 -7
COMMENT "Generated by fontforge, http://fontforge.sourceforge.net"
COMMENT "Copyright 2011 Canonical Ltd.  Licensed under the Ubuntu Font Licence 1.0"
STARTPROPERTIES 39
FOUNDRY "FontForge"
FAMILY_NAME "Ubuntu"
WEIGHT_NAME "Book"
SLANT "R"
SETWIDTH_NAME "Normal"
ADD_STYLE_NAME ""
PIXEL_SIZE 38
POINT_SIZE 360
RESOLUTION_X 75
RESOLUTION_Y 75
SPACING "P"
AVERAGE_WIDTH 200
CHARSET_REGISTRY "ISO10646"
CHARSET_ENCODING "1"
FONTNAME_REGISTRY ""
CHARSET_COLLECTIONS "ISO10646-1"
FONT_NAME "Ubuntu"
FACE_NAME "Ubuntu"
COPYRIGHT "Copyright 2011 Canonical Ltd.  Licensed under the Ubuntu Font Licence 1.0"
FONT_VERSION "0.83"
FONT_ASCENT 30
FONT_DESCENT 8
UNDERLINE_POSITION -6
UNDERLINE_THICKNESS 4
X_HEIGHT 19
CAP_HEIGHT 25
RAW_ASCENT 800
RAW_DESCENT 200
RELATIVE_WEIGHT 40
RELATIVE_SETWIDTH 50
SUPERSCRIPT_X 0
SUPERSCRIPT_Y 18
SUPERSCRIPT_SIZE 24
SUBSCRIPT_X 0
SUBSCRIPT_Y 5
SUBSCRIPT_SIZE 24
FIGURE_WIDTH 21
AVG_LOWERCASE_WIDTH 195
AVG_UPPERCASE_WIDTH 243
ENDPROPERTIES
CHARS 95
STARTCHAR exclam
ENCODING 33
SWIDTH 276 0
DWIDTH 10 0
BBX 6 26 2 0
BITMAP
78
78
78
78
78
78
78
78
78
78
78
78
78
78
78
30
30
00
00
00
00
78
FC
FC
FC
78
ENDCHAR
STARTCHAR quotedbl
ENCODING 34
SWIDTH 418 0
DWIDTH 16 0
BBX 11 10 3 20
BITMAP
F1E0
F1E0
F1E0
F1E0
F1E0
F1E0
F1C0
F1C0
61C0
61C0
ENDCHAR
STARTCHAR numbersign
ENCODING 35
SWIDTH 667 0
DWIDTH 25 0
BBX 21 26 2 0
BITMAP
01E1E0
01E1E0
01E3E0
03C3C0
03C3C0
03C3C0
03C3C0
FFFFF8
FFFFF8
FFFFF8
078780
078780
078780
0F0F00
0F0F00
0F0F00
FFFFF8
FFFFF8
FFFFF8
1E1E00
1E1E00
1E1E00
1E1E00
3E3C00
3C3C00
3C3C00
ENDCHAR
STARTCHAR dollar
ENCODING 36
SWIDTH 564 0
DWIDTH 21 0
BBX 17 34 2 -5
BITMAP
01C000
01C000
01C000
01C000
07FC00
1FFF00
3FFF00
3E0600
7C0000
780000
780000
780000
7C0000
7E0000
3F8000
1FF000
0FFC00
03FE00
007F00
001F00
000F80
000780
000780
000780
000F80
701F00
FFFF00
FFFC00
1FF000
01C000
01C000
01C000
01C000
01C000
ENDCHAR
STARTCHAR percent
ENCODING 37
SWIDTH 858 0
DWIDTH 33 0
BBX 29 26 2 0
BITMAP
0F000700
3FC00E00
7FE01C00
70E01C00
F0F03800
E0703800
E0707000
E070E000
E070E000
E071C000
F0F1C000
70E38780
7FE71FE0
3FC73FF0
0F0E3870
001C7878
001C7038
00387038
00387038
00707038
00E07038
00E07878
01C03870
01C03FF0
03801FE0
07000780
ENDCHAR
STARTCHAR ampersand
ENCODING 38
SWIDTH 666 0
DWIDTH 25 0
BBX 22 26 2 0
BITMAP
01F000
07F800
0FFC00
1F3E00
1E1E00
1E1E00
1E1E00
1E1E00
1F3C00
0F7C00
0FF800
07F000
0FE000
3FF038
7CF838
787C70
F07C70
F03E60
F01FE0
F00FC0
F007C0
F803E0
7C0FF0
3FFFF8
1FFCFC
07F07C
ENDCHAR
STARTCHAR quotesingle
ENCODING 39
SWIDTH 241 0
DWIDTH 9 0
BBX 4 10 3 20
BITMAP
F0
F0
F0
F0
F0
F0
F0
F0
60
60
ENDCHAR
STARTCHAR parenleft
ENCODING 40
SWIDTH 324 0
DWIDTH 12 0
BBX 10 37 3 -7
BITMAP
0100
03C0
0780
0F80
0F00
1E00
1E00
3C00
3C00
7C00
7800
7800
7800
F000
F000
F000
F000
F000
F000
F000
F000
F000
F000
F000
7800
7800
7800
7800
3C00
3C00
1E00
1E00
0F00
0F80
0780
03C0
0100
ENDCHAR
STARTCHAR parenright
ENCODING 41
SWIDTH 324 0
DWIDTH 12 0
BBX 10 37 -1 -7
BITMAP
2000
F000
7800
7C00
3C00
1E00
1E00
0F00
0F00
0F80
0780
0780
0780
03C0
03C0
03C0
03C0
03C0
03C0
03C0
03C0
03C0
03C0
03C0
0780
0780
0780
0F80
0F00
0F00
1E00
1E00
3C00
7C00
7800
F000
2000
ENDCHAR
STARTCHAR asterisk
ENCODING 42
SWIDTH 480 0
DWIDTH 18 0
BBX 15 15 2 11
BITMAP
0380
0380
0380
0380
4384
F39C
FD7E
7FFC
0380
06C0
0EE0
1EF0
3C78
1C70
0820
ENDCHAR
STARTCHAR plus
ENCODING 43
SWIDTH 564 0
DWIDTH 21 0
BBX 17 17 2 3
BITMAP
01C000
01C000
01C000
01C000
01C000
01C000
01C000
FFFF80
FFFF80
FFFF80
01C000
01C000
01C000
01C000
01C000
01C000
01C000
ENDCHAR
STARTCHAR comma
ENCODING 44
SWIDTH 246 0
DWIDTH 9 0
BBX 6 10 1 -6
BITMAP
3C
3C
3C
3C
3C
38
78
78
F0
70
ENDCHAR
STARTCHAR hyphen
ENCODING 45
SWIDTH 299 0
DWIDTH 11 0
BBX 9 3 1 10
BITMAP
FF80
FF80
FF80
ENDCHAR
STARTCHAR period
ENCODING 46
SWIDTH 246 0
DWIDTH 9 0
BBX 5 5 2 0
BITMAP
70
F8
F8
F8
70
ENDCHAR
STARTCHAR slash
ENCODING 47
SWIDTH 384 0
DWIDTH 15 0
BBX 17 37 -1 -7
BITMAP
000380
000700
000700
000700
000E00
000E00
001E00
001C00
001C00
003800
003800
003800
007000
007000
00F000
00E000
00E000
01C000
01C000
01C000
038000
038000
078000
070000
070000
0E0000
0E0000
0E0000
1C0000
1C0000
3C0000
380000
380000
700000
700000
700000
E00000
ENDCHAR
STARTCHAR zero
ENCODING 48
SWIDTH 564 0
DWIDTH 21 0
BBX 17 26 2 0
BITMAP
03E000
0FF800
1FFC00
3E3E00
3C1E00
780F00
780F00
780F00
F00780
F00780
F00780
F00780
F00780
F00780
F00780
F00780
F00780
F00780
700F00
780F00
780F00
3C1E00
3E3E00
1FFC00
0FF800
03E000
ENDCHAR
STARTCHAR one
ENCODING 49
SWIDTH 564 0
DWIDTH 21 0
BBX 11 26 3 0
BITMAP
00E0
01E0
07E0
1FE0
7FE0
FDE0
79E0
41E0
01E0
01E0
01E0
01E0
01E0
01E0
01E0
01E0
01E0
01E0
01E0
01E0
01E0
01E0
01E0
01E0
01E0
01E0
ENDCHAR
STARTCHAR two
ENCODING 50
SWIDTH 564 0
DWIDTH 21 0
BBX 16 26 2 0
BITMAP
0FE0
3FF8
7FFC
F87C
603E
001E
001E
001E
001E
001E
003E
003C
007C
00F8
01F0
03E0
0FC0
1F80
1F00
3E00
3C00
7800
7800
7FFF
7FFF
7FFF
ENDCHAR
STARTCHAR three
ENCODING 51
SWIDTH 564 0
DWIDTH 21 0
BBX 16 26 2 0
BITMAP
0FE0
3FF8
7FFC
307C
203E
001E
001E
001E
001E
003C
0078
07F0
07F0
07FC
007E
001E
000F
000F
000F
000F
000F
001E
E07E
FFFC
FFF8
1FC0
ENDCHAR
STARTCHAR four
ENCODING 52
SWIDTH 564 0
DWIDTH 21 0
BBX 17 26 2 0
BITMAP
003C00
007C00
00FC00
01FC00
01FC00
03FC00
07BC00
073C00
0F3C00
1E3C00
1C3C00
3C3C00
383C00
783C00
783C00
F03C00
FFFF80
FFFF80
FFFF80
003C00
003C00
003C00
003C00
003C00
003C00
003C00
ENDCHAR
STARTCHAR five
ENCODING 53
SWIDTH 564 0
DWIDTH 21 0
BBX 16 26 2 0
BITMAP
1FFE
1FFE
1FFE
1E00
1E00
1E00
1C00
3C00
3C00
3C00
3FC0
3FF0
3FFC
01FE
003E
001F
000F
000F
000F
000F
000F
001E
E07E
FFFC
FFF8
1FC0
ENDCHAR
STARTCHAR six
ENCODING 54
SWIDTH 564 0
DWIDTH 21 0
BBX 17 26 2 0
BITMAP
003E00
00FE00
03FE00
0FE000
1F8000
1E0000
3C0000
3C0000
780000
780000
FBF000
FFFC00
FFFE00
F81F00
F00F00
F00780
F00780
F00780
F00780
F00780
780F80
780F00
3E1F00
1FFE00
0FFC00
03F000
ENDCHAR
STARTCHAR seven
ENCODING 55
SWIDTH 564 0
DWIDTH 21 0
BBX 17 26 2 0
BITMAP
FFFF80
FFFF80
FFFF80
000700
000F00
001E00
001C00
003C00
007800
007800
00F000
00F000
00E000
01E000
01E000
03C000
03C000
03C000
078000
078000
078000
078000
0F0000
0F0000
0F0000
0F0000
ENDCHAR
STARTCHAR eight
ENCODING 56
SWIDTH 564 0
DWIDTH 21 0
BBX 17 26 2 0
BITMAP
03F000
0FFC00
1FFE00
3C3E00
781F00
780F00
780F00
780F00
7C0F00
7E1E00
3FBE00
1FFC00
0FF800
1FFE00
3CFF00
783F00
780F80
F00780
F00780
F00780
F00780
F80F80
7C1F00
3FFE00
1FFC00
07F000
ENDCHAR
STARTCHAR nine
ENCODING 57
SWIDTH 564 0
DWIDTH 21 0
BBX 17 26 2 0
BITMAP
07E000
1FF800
3FFC00
7C3E00
780F00
F80F00
F00700
F00780
F00780
F00780
F00780
780780
7C0F80
3FFF80
1FFF80
07EF80
000F00
000F00
001F00
001E00
003E00
007C00
03F800
3FF000
3FC000
3E0000
ENDCHAR
STARTCHAR colon
ENCODING 58
SWIDTH 246 0
DWIDTH 9 0
BBX 5 20 2 0
BITMAP
70
F8
F8
F8
70
00
00
00
00
00
00
00
00
00
00
70
F8
F8
F8
70
ENDCHAR
STARTCHAR semicolon
ENCODING 59
SWIDTH 246 0
DWIDTH 9 0
BBX 6 26 1 -6
BITMAP
38
7C
7C
7C
38
00
00
00
00
00
00
00
00
00
00
00
3C
3C
3C
3C
3C
38
78
78
F0
70
ENDCHAR
STARTCHAR less
ENCODING 60
SWIDTH 564 0
DWIDTH 21 0
BBX 17 17 2 3
BITMAP
000100
000780
003F80
00FE00
03F800
1FE000
7F8000
FC0000
F00000
FC0000
7F8000
1FE000
03F800
00FE00
003F80
000780
000100
ENDCHAR
STARTCHAR equal
ENCODING 61
SWIDTH 564 0
DWIDTH 21 0
BBX 17 11 2 6
BITMAP
FFFF80
FFFF80
FFFF80
000000
000000
000000
000000
000000
FFFF80
FFFF80
FFFF80
ENDCHAR
STARTCHAR greater
ENCODING 62
SWIDTH 564 0
DWIDTH 21 0
BBX 18 17 2 3
BITMAP
400000
F80000
FE0000
3FC000
0FF000
01FC00
007F80
000FC0
0003C0
000FC0
007F80
01FE00
0FF000
3FC000
FE0000
F80000
400000
ENDCHAR
STARTCHAR question
ENCODING 63
SWIDTH 404 0
DWIDTH 15 0
BBX 13 26 1 0
BITMAP
1F80
FFE0
FFF0
60F8
0078
0078
0078
0078
00F0
01F0
01E0
03C0
0780
0F80
0F00
0F00
0F00
0000
0000
0000
0000
0600
0F00
0F00
0F00
0600
ENDCHAR
STARTCHAR at
ENCODING 64
SWIDTH 950 0
DWIDTH 36 0
BBX 32 33 2 -6
BITMAP
000FF800
007FFF00
01FFFF80
03F80FE0
0FC003F0
0F8000F8
1F00007C
3E00003C
3C03FC3E
780FFF1E
783FFF1E
783E0F0F
F0780F0F
F0F80F0F
F0F00F0F
F0F00F0F
F0F00F0F
F0F00F0F
F0F00F0F
F0F80F1E
F0780F1E
787E0F3C
783FFFFC
7C1FFFF8
3C07F3F0
3E000000
1F000000
0F800000
07E00000
03F80100
01FFFF00
007FFF00
0007FE00
ENDCHAR
STARTCHAR A
ENCODING 65
SWIDTH 663 0
DWIDTH 25 0
BBX 25 26 0 0
BITMAP
003E0000
007F0000
007F0000
00FF8000
00F78000
00F78000
01F7C000
01E3C000
01E3C000
03C1E000
03C1E000
07C1F000
0780F000
0780F000
0F80F800
0F007800
0FFFF800
1FFFFC00
1FFFFC00
3E003E00
3C001E00
3C001E00
7C001F00
78000F00
78000F00
F0000780
ENDCHAR
STARTCHAR B
ENCODING 66
SWIDTH 643 0
DWIDTH 24 0
BBX 19 26 3 0
BITMAP
7FF000
FFFE00
FFFF00
F01F80
F007C0
F003C0
F003C0
F003C0
F003C0
F00780
F01F80
FFFF00
FFFE00
FFFF80
F00FC0
F003C0
F001E0
F001E0
F001E0
F001E0
F003E0
F003C0
F00FC0
FFFF80
FFFE00
7FF000
ENDCHAR
STARTCHAR C
ENCODING 67
SWIDTH 620 0
DWIDTH 24 0
BBX 21 26 2 0
BITMAP
007FC0
01FFF0
07FFF8
0FC070
1F0000
3E0000
7C0000
780000
780000
F00000
F00000
F00000
F00000
F00000
F00000
F00000
F00000
780000
780000
7C0000
3C0000
1F0000
1FC070
07FFF8
03FFF8
007FC0
ENDCHAR
STARTCHAR D
ENCODING 68
SWIDTH 713 0
DWIDTH 27 0
BBX 22 26 3 0
BITMAP
7FF000
FFFE00
FFFF80
F00FC0
F003E0
F001F0
F000F8
F00078
F00078
F0003C
F0003C
F0003C
F0003C
F0003C
F0003C
F0003C
F0003C
F00078
F00078
F000F8
F001F0
F003E0
F00FC0
FFFF80
FFFE00
7FF000
ENDCHAR
STARTCHAR E
ENCODING 69
SWIDTH 571 0
DWIDTH 22 0
BBX 18 26 3 0
BITMAP
FFFF80
FFFF80
FFFF80
F00000
F00000
F00000
F00000
F00000
F00000
F00000
F00000
FFFF00
FFFF00
FFFF00
F00000
F00000
F00000
F00000
F00000
F00000
F00000
F00000
F00000
FFFFC0
FFFFC0
FFFFC0
ENDCHAR
STARTCHAR F
ENCODING 70
SWIDTH 537 0
DWIDTH 20 0
BBX 16 26 3 0
BITMAP
FFFF
FFFF
FFFF
F000
F000
F000
F000
F000
F000
F000
F000
FFFE
FFFE
FFFE
F000
F000
F000
F000
F000
F000
F000
F000
F000
F000
F000
F000
ENDCHAR
STARTCHAR G
ENCODING 71
SWIDTH 672 0
DWIDTH 26 0
BBX 21 26 2 0
BITMAP
007F80
03FFF0
07FFF8
0FC070
1F0000
3E0000
7C0000
780000
780000
F00000
F00000
F00000
F00000
F00078
F00078
F00078
F00078
780078
780078
7C0078
3C0078
3F0078
1F8078
0FFFF8
03FFF8
00FFC0
ENDCHAR
STARTCHAR H
ENCODING 72
SWIDTH 705 0
DWIDTH 27 0
BBX 21 26 3 0
BITMAP
F00078
F00078
F00078
F00078
F00078
F00078
F00078
F00078
F00078
F00078
F00078
FFFFF8
FFFFF8
FFFFF8
F00078
F00078
F00078
F00078
F00078
F00078
F00078
F00078
F00078
F00078
F00078
F00078
ENDCHAR
STARTCHAR I
ENCODING 73
SWIDTH 269 0
DWIDTH 10 0
BBX 4 26 3 0
BITMAP
F0
F0
F0
F0
F0
F0
F0
F0
F0
F0
F0
F0
F0
F0
F0
F0
F0
F0
F0
F0
F0
F0
F0
F0
F0
F0
ENDCHAR
STARTCHAR J
ENCODING 74
SWIDTH 500 0
DWIDTH 19 0
BBX 16 26 0 0
BITMAP
000F
000F
000F
000F
000F
000F
000F
000F
000F
000F
000F
000F
000F
000F
000F
000F
000F
000F
000F
000F
001F
401E
707E
FFFC
7FF8
1FE0
ENDCHAR
STARTCHAR K
ENCODING 75
SWIDTH 629 0
DWIDTH 24 0
BBX 21 26 3 0
BITMAP
F003E0
F007E0
F00FC0
F01F80
F03F00
F07E00
F0FC00
F1F800
F3F000
F7E000
FFC000
FF8000
FFC000
FFE000
F7F000
F3F800
F1FC00
F07E00
F03F00
F01F00
F00F80
F007C0
F007E0
F003E0
F001F0
F000F8
ENDCHAR
STARTCHAR L
ENCODING 76
SWIDTH 519 0
DWIDTH 20 0
BBX 16 26 3 0
BITMAP
F000
F000
F000
F000
F000
F000
F000
F000
F000
F000
F000
F000
F000
F000
F000
F000
F000
F000
F000
F000
F000
F000
F000
FFFF
FFFF
FFFF
ENDCHAR
STARTCHAR M
ENCODING 77
SWIDTH 871 0
DWIDTH 34 0
BBX 30 26 2 0
BITMAP
3C0000F0
3E0001F0
3E0001F0
3F0003F0
7F0003F0
7F8007F8
7F8007F8
7BC00F78
79C00E78
79E01E78
78E01C78
78F03C78
78703878
78787878
78387078
7838F078
F81CE078
F81CE078
F01FE03C
F00FC03C
F00FC03C
F007803C
F000003C
F000003C
F000003C
F000003C
ENDCHAR
STARTCHAR N
ENCODING 78
SWIDTH 728 0
DWIDTH 28 0
BBX 22 26 3 0
BITMAP
F8003C
FC003C
FC003C
FE003C
FF003C
FF803C
F7803C
F7C03C
F3E03C
F1F03C
F0F03C
F0783C
F07C3C
F03C3C
F01E3C
F00F3C
F00F3C
F007BC
F003FC
F003FC
F001FC
F000FC
F000FC
F0007C
F0003C
F0003C
ENDCHAR
STARTCHAR O
ENCODING 79
SWIDTH 778 0
DWIDTH 30 0
BBX 26 26 2 0
BITMAP
007F8000
03FFF000
07FFF800
0FC0FC00
1F003E00
3E001F00
7C000F80
78000780
78000780
F00003C0
F00003C0
F00003C0
F00003C0
F00003C0
F00003C0
F00003C0
F00003C0
78000780
78000780
7C000F80
3E001F00
1F003E00
0FC0FC00
07FFF800
03FFF000
007F8000
ENDCHAR
STARTCHAR P
ENCODING 80
SWIDTH 608 0
DWIDTH 23 0
BBX 19 26 3 0
BITMAP
7FF000
FFFE00
FFFF80
F00FC0
F007C0
F003E0
F001E0
F001E0
F001E0
F001E0
F003E0
F007C0
F01FC0
FFFF80
FFFE00
FFF000
F00000
F00000
F00000
F00000
F00000
F00000
F00000
F00000
F00000
F00000
ENDCHAR
STARTCHAR Q
ENCODING 81
SWIDTH 778 0
DWIDTH 30 0
BBX 26 33 2 -7
BITMAP
007F8000
03FFF000
07FFF800
0FC0FC00
1F003E00
3E001F00
7C000F80
78000780
78000780
F00003C0
F00003C0
F00003C0
F00003C0
F00003C0
F00003C0
F00003C0
F00003C0
78000780
78000780
7C000F80
3E001F00
1F003E00
0FC0FC00
07FFF800
03FFF000
007F8000
000F0000
000F8000
0007C000
0003F800
0001FF00
00007E00
00000E00
ENDCHAR
STARTCHAR R
ENCODING 82
SWIDTH 629 0
DWIDTH 24 0
BBX 20 26 3 0
BITMAP
7FF000
FFFC00
FFFF00
F01F80
F00780
F007C0
F003C0
F003C0
F003C0
F003C0
F007C0
F00780
F01F80
FFFF00
FFFC00
FFF800
F07C00
F03C00
F03E00
F01F00
F00F00
F00F80
F007C0
F003C0
F003E0
F001F0
ENDCHAR
STARTCHAR S
ENCODING 83
SWIDTH 532 0
DWIDTH 20 0
BBX 18 26 1 0
BITMAP
03FC00
0FFF80
1FFF80
3E0300
7C0000
780000
780000
780000
7C0000
7E0000
3F8000
1FF800
0FFE00
03FF00
007F80
000F80
0007C0
0003C0
0003C0
0003C0
0003C0
4007C0
700F80
FFFF00
7FFE00
0FF000
ENDCHAR
STARTCHAR T
ENCODING 84
SWIDTH 565 0
DWIDTH 22 0
BBX 20 26 1 0
BITMAP
FFFFF0
FFFFF0
FFFFF0
00F000
00F000
00F000
00F000
00F000
00F000
00F000
00F000
00F000
00F000
00F000
00F000
00F000
00F000
00F000
00F000
00F000
00F000
00F000
00F000
00F000
00F000
00F000
ENDCHAR
STARTCHAR U
ENCODING 85
SWIDTH 688 0
DWIDTH 26 0
BBX 20 26 3 0
BITMAP
F000F0
F000F0
F000F0
F000F0
F000F0
F000F0
F000F0
F000F0
F000F0
F000F0
F000F0
F000F0
F000F0
F000F0
F000F0
F000F0
F000F0
F000F0
F000F0
F801F0
7801E0
7C03E0
3E07C0
1FFF80
0FFF00
03FC00
ENDCHAR
STARTCHAR V
ENCODING 86
SWIDTH 656 0
DWIDTH 24 0
BBX 24 26 0 0
BITMAP
F0000F
F8001E
78001E
78001E
7C003C
3C003C
3E007C
1E0078
1E0078
1F00F8
0F00F0
0F00F0
0F81F0
0781E0
07C3E0
03C3C0
03C3C0
03E7C0
01E780
01FF80
00FF00
00FF00
00FF00
007E00
007E00
003C00
ENDCHAR
STARTCHAR W
ENCODING 87
SWIDTH 929 0
DWIDTH 35 0
BBX 33 26 1 0
BITMAP
F000000780
F000000780
F800000F80
7803E00F00
7803E00F00
7803E00F00
7807F00F00
7807F00F00
7C07701F00
3C0F781E00
3C0F781E00
3C0F781E00
3C1E381E00
3E1E3C3E00
1E1E3C3C00
1E3C1C3C00
1E3C1E3C00
1E3C1E7C00
1F7C0E7C00
0F780F7800
0F780F7800
0FF80FF800
0FF007F800
07F007F000
07F003F000
07E003F000
ENDCHAR
STARTCHAR X
ENCODING 88
SWIDTH 631 0
DWIDTH 24 0
BBX 22 26 1 0
BITMAP
F800F8
7C01F0
3C01E0
3E03E0
1F03C0
0F07C0
0F8F80
07CF00
03DF00
03FE00
01FC00
00FC00
00F800
00FC00
01FC00
03FE00
03FF00
07CF80
0F8F80
0F87C0
1F03E0
3E01E0
3E01F0
7C00F8
7800F8
F8007C
ENDCHAR
STARTCHAR Y
ENCODING 89
SWIDTH 598 0
DWIDTH 22 0
BBX 22 26 0 0
BITMAP
F8007C
780078
7C00F8
3C00F0
1E01E0
1F03E0
0F03C0
0F87C0
078780
07CF80
03FF00
01FE00
01FE00
00FC00
007800
007800
007800
007800
007800
007800
007800
007800
007800
007800
007800
007800
ENDCHAR
STARTCHAR Z
ENCODING 90
SWIDTH 573 0
DWIDTH 22 0
BBX 20 26 1 0
BITMAP
7FFFF0
7FFFF0
7FFFF0
0001F0
0003E0
0007C0
000F80
000F00
001F00
003E00
007C00
007800
00F800
01F000
03E000
03C000
07C000
0F8000
0F0000
1F0000
3E0000
3C0000
7C0000
FFFFF0
FFFFF0
FFFFF0
ENDCHAR
STARTCHAR bracketleft
ENCODING 91
SWIDTH 329 0
DWIDTH 13 0
BBX 9 37 4 -7
BITMAP
FF80
FF80
FF80
F000
F000
F000
F000
F000
F000
F000
F000
F000
F000
F000
F000
F000
F000
F000
F000
F000
F000
F000
F000
F000
F000
F000
F000
F000
F000
F000
F000
F000
F000
F000
FF80
FF80
FF80
ENDCHAR
STARTCHAR backslash
ENCODING 92
SWIDTH 384 0
DWIDTH 15 0
BBX 17 37 -1 -7
BITMAP
E00000
700000
700000
700000
380000
380000
3C0000
1C0000
1C0000
0E0000
0E0000
0E0000
070000
070000
078000
038000
038000
01C000
01C000
01C000
00E000
00E000
00F000
007000
007000
003800
003800
003800
001C00
001C00
000E00
000E00
000E00
000700
000700
000700
000380
ENDCHAR
STARTCHAR bracketright
ENCODING 93
SWIDTH 329 0
DWIDTH 13 0
BBX 9 37 0 -7
BITMAP
FF80
FF80
FF80
0780
0780
0780
0780
0780
0780
0780
0780
0780
0780
0780
0780
0780
0780
0780
0780
0780
0780
0780
0780
0780
0780
0780
0780
0780
0780
0780
0780
0780
0780
0780
FF80
FF80
FF80
ENDCHAR
STARTCHAR asciicircum
ENCODING 94
SWIDTH 564 0
DWIDTH 21 0
BBX 17 14 2 12
BITMAP
01C000
03E000
03E000
07F000
0F7800
0F7800
1E3C00
1E3C00
3C1E00
380E00
780F00
700700
F00780
200200
ENDCHAR
STARTCHAR underscore
ENCODING 95
SWIDTH 492 0
DWIDTH 19 0
BBX 19 3 0 -7
BITMAP
FFFFE0
FFFFE0
FFFFE0
ENDCHAR
STARTCHAR grave
ENCODING 96
SWIDTH 376 0
DWIDTH 14 0
BBX 7 7 2 22
BITMAP
20
70
F8
3C
1E
0E
04
ENDCHAR
STARTCHAR a
ENCODING 97
SWIDTH 522 0
DWIDTH 20 0
BBX 15 20 2 0
BITMAP
1FE0
3FF8
3FFC
207C
003E
001E
001E
001E
0FFE
3FFE
7FFE
FC1E
F01E
F01E
F01E
F01E
F81E
7FFE
3FFE
0FF8
ENDCHAR
STARTCHAR b
ENCODING 98
SWIDTH 589 0
DWIDTH 22 0
BBX 17 29 3 0
BITMAP
700000
F00000
F00000
F00000
F00000
F00000
F00000
F00000
F00000
F3F000
FFF800
FFFE00
FC3E00
F01F00
F00F00
F00780
F00780
F00780
F00780
F00780
F00780
F00780
F00F80
F00F00
F01F00
F03E00
FFFC00
FFF800
3FE000
ENDCHAR
STARTCHAR c
ENCODING 99
SWIDTH 465 0
DWIDTH 18 0
BBX 15 20 2 0
BITMAP
03FC
0FFE
1FFE
3E04
7C00
7800
F800
F000
F000
F000
F000
F000
F000
F800
7800
7C00
3E02
1FFE
0FFE
03FC
ENDCHAR
STARTCHAR d
ENCODING 100
SWIDTH 589 0
DWIDTH 22 0
BBX 17 29 2 0
BITMAP
000380
000780
000780
000780
000780
000780
000780
000780
000780
07E780
0FFF80
3FFF80
3E1F80
7C0780
780780
F00780
F00780
F00780
F00780
F00780
F00780
F00780
F80780
780780
7C0780
3E0780
1FFF80
0FFF80
03FE00
ENDCHAR
STARTCHAR e
ENCODING 101
SWIDTH 559 0
DWIDTH 21 0
BBX 17 20 2 0
BITMAP
03F000
0FFC00
1FFE00
3E1F00
780F00
780700
F00780
F00780
FFFF80
FFFF80
FFFF80
F00000
F00000
F80000
780000
7C0000
3E0300
1FFF00
0FFF00
03FC00
ENDCHAR
STARTCHAR f
ENCODING 102
SWIDTH 386 0
DWIDTH 15 0
BBX 12 29 3 0
BITMAP
0FE0
3FF0
7FF0
7C00
F800
F000
F000
F000
F000
FFE0
FFE0
FFE0
F000
F000
F000
F000
F000
F000
F000
F000
F000
F000
F000
F000
F000
F000
F000
F000
F000
ENDCHAR
STARTCHAR g
ENCODING 103
SWIDTH 578 0
DWIDTH 22 0
BBX 17 27 2 -7
BITMAP
03FE00
0FFF80
1FFF80
3E0780
7C0780
780780
F00780
F00780
F00780
F00780
F00780
F00780
F00780
780780
7C0780
7E0F80
3FFF80
1FFF80
07E780
000780
000780
000F80
000F00
203F00
7FFE00
7FFC00
1FF000
ENDCHAR
STARTCHAR h
ENCODING 104
SWIDTH 571 0
DWIDTH 22 0
BBX 16 29 3 0
BITMAP
7000
F000
F000
F000
F000
F000
F000
F000
F000
F7F0
FFF8
FFFC
F03E
F01E
F00F
F00F
F00F
F00F
F00F
F00F
F00F
F00F
F00F
F00F
F00F
F00F
F00F
F00F
F00F
ENDCHAR
STARTCHAR i
ENCODING 105
SWIDTH 253 0
DWIDTH 10 0
BBX 4 28 3 0
BITMAP
F0
F0
F0
F0
00
00
00
00
F0
F0
F0
F0
F0
F0
F0
F0
F0
F0
F0
F0
F0
F0
F0
F0
F0
F0
F0
F0
ENDCHAR
STARTCHAR j
ENCODING 106
SWIDTH 253 0
DWIDTH 10 0
BBX 10 35 -3 -7
BITMAP
03C0
03C0
03C0
03C0
0000
0000
0000
0000
03C0
03C0
03C0
03C0
03C0
03C0
03C0
03C0
03C0
03C0
03C0
03C0
03C0
03C0
03C0
03C0
03C0
03C0
03C0
03C0
03C0
03C0
07C0
0F80
FF80
FF00
FC00
ENDCHAR
STARTCHAR k
ENCODING 107
SWIDTH 522 0
DWIDTH 20 0
BBX 16 29 3 0
BITMAP
7000
F000
F000
F000
F000
F000
F000
F000
F000
F03E
F07C
F0F8
F1F0
F1F0
F3E0
F7C0
FF80
FF80
FF80
FFC0
F7E0
F3F0
F1F0
F1F8
F0FC
F07C
F07E
F03E
F01F
ENDCHAR
STARTCHAR l
ENCODING 108
SWIDTH 273 0
DWIDTH 11 0
BBX 7 29 3 0
BITMAP
70
F0
F0
F0
F0
F0
F0
F0
F0
F0
F0
F0
F0
F0
F0
F0
F0
F0
F0
F0
F0
F0
F0
F0
F0
F8
7E
7E
1E
ENDCHAR
STARTCHAR m
ENCODING 109
SWIDTH 861 0
DWIDTH 32 0
BBX 26 20 3 0
BITMAP
3FE0FC00
FFF7FF00
FFFFFF80
F07F0F80
F03C07C0
F01E03C0
F01E03C0
F01E03C0
F01E03C0
F01E03C0
F01E03C0
F01E03C0
F01E03C0
F01E03C0
F01E03C0
F01E03C0
F01E03C0
F01E03C0
F01E03C0
F01E03C0
ENDCHAR
STARTCHAR n
ENCODING 110
SWIDTH 574 0
DWIDTH 22 0
BBX 16 20 3 0
BITMAP
3FE0
FFF8
FFFC
F03E
F01E
F00F
F00F
F00F
F00F
F00F
F00F
F00F
F00F
F00F
F00F
F00F
F00F
F00F
F00F
F00F
ENDCHAR
STARTCHAR o
ENCODING 111
SWIDTH 590 0
DWIDTH 22 0
BBX 18 20 2 0
BITMAP
03F000
0FFC00
1FFE00
3E1F00
7C0F80
780780
F807C0
F003C0
F003C0
F003C0
F003C0
F003C0
F003C0
F807C0
780780
7C0F80
3E1F00
1FFE00
0FFC00
03F000
ENDCHAR
STARTCHAR p
ENCODING 112
SWIDTH 589 0
DWIDTH 22 0
BBX 17 27 3 -7
BITMAP
3FE000
FFF800
FFFC00
F03E00
F01F00
F00F00
F00F80
F00780
F00780
F00780
F00780
F00780
F00780
F00780
F00F00
F01F00
FC3E00
FFFE00
FFFC00
F3F000
F00000
F00000
F00000
F00000
F00000
F00000
F00000
ENDCHAR
STARTCHAR q
ENCODING 113
SWIDTH 589 0
DWIDTH 22 0
BBX 17 27 2 -7
BITMAP
03FE00
0FFF80
1FFF80
3E0780
7C0780
780780
F80780
F00780
F00780
F00780
F00780
F00780
F00780
F00780
780780
7C0780
3E1F80
3FFF80
1FFF80
07E780
000780
000780
000780
000780
000780
000780
000780
ENDCHAR
STARTCHAR r
ENCODING 114
SWIDTH 386 0
DWIDTH 15 0
BBX 12 20 3 0
BITMAP
1FF0
FFF0
FFF0
F000
F000
F000
F000
F000
F000
F000
F000
F000
F000
F000
F000
F000
F000
F000
F000
F000
ENDCHAR
STARTCHAR s
ENCODING 115
SWIDTH 446 0
DWIDTH 17 0
BBX 13 20 2 0
BITMAP
0FE0
3FF0
7FF0
F830
F000
F000
F000
F800
FF00
7FE0
3FF0
07F8
00F8
0078
0078
0078
C0F8
FFF0
FFE0
3F80
ENDCHAR
STARTCHAR t
ENCODING 116
SWIDTH 402 0
DWIDTH 15 0
BBX 11 26 3 0
BITMAP
7000
F000
F000
F000
F000
F000
FFC0
FFC0
FFC0
F000
F000
F000
F000
F000
F000
F000
F000
F000
F000
F000
F000
F800
7840
7FE0
3FE0
1FC0
ENDCHAR
STARTCHAR u
ENCODING 117
SWIDTH 574 0
DWIDTH 22 0
BBX 16 20 3 0
BITMAP
F00F
F00F
F00F
F00F
F00F
F00F
F00F
F00F
F00F
F00F
F00F
F00F
F00F
F00F
F80F
780F
7C0F
3FFF
1FFF
07FC
ENDCHAR
STARTCHAR v
ENCODING 118
SWIDTH 502 0
DWIDTH 20 0
BBX 18 20 1 0
BITMAP
F003C0
F807C0
780780
780780
780780
3C0F00
3C0F00
3C0F00
3E1E00
1E1E00
1E1E00
0F3C00
0F3C00
0F3C00
07F800
07F800
03F000
03F000
03F000
01E000
ENDCHAR
STARTCHAR w
ENCODING 119
SWIDTH 777 0
DWIDTH 31 0
BBX 29 20 1 0
BITMAP
F0070078
F00F80F8
780F80F0
780F80F0
780F80F0
781FC0F0
3C1DC1E0
3C1DC1E0
3C1DC1E0
1C3DE3C0
1E3DE3C0
1E38E3C0
0E78F380
0F78F780
0F707780
07707700
07F07F00
03F07F00
03E03E00
03E03E00
ENDCHAR
STARTCHAR x
ENCODING 120
SWIDTH 511 0
DWIDTH 19 0
BBX 17 20 1 0
BITMAP
F81F00
7C1E00
3C3E00
3E7C00
1E7800
1FF800
0FF000
07F000
07E000
03E000
07E000
07F000
0FF800
1FF800
1F7C00
3E3C00
3C3E00
7C1F00
780F00
F80F80
ENDCHAR
STARTCHAR y
ENCODING 121
SWIDTH 497 0
DWIDTH 20 0
BBX 19 27 0 -7
BITMAP
7801E0
7C03E0
3C03C0
3C03C0
3E07C0
1E0780
1E0780
1F0780
0F0F00
0F0F00
0F0F00
079F00
079E00
079E00
07DE00
03DC00
03DC00
03FC00
01F800
01F800
01F800
00F000
01F000
03E000
FFC000
FF8000
FE0000
ENDCHAR
STARTCHAR z
ENCODING 122
SWIDTH 471 0
DWIDTH 18 0
BBX 16 20 1 0
BITMAP
7FFF
7FFF
7FFF
001F
003E
007C
00F8
01F0
01F0
03E0
07C0
0F80
0F80
1F00
3E00
3E00
7C00
FFFF
FFFF
FFFF
ENDCHAR
STARTCHAR braceleft
ENCODING 123
SWIDTH 333 0
DWIDTH 13 0
BBX 12 37 1 -7
BITMAP
00F0
03F0
07F0
0F80
0F00
0F00
0F00
0F00
0F00
0F00
0F00
0F00
0F00
0F00
0F00
1F00
3E00
FE00
F800
FE00
3E00
1F00
0F00
0F00
0F00
0F00
0F00
0F00
0F00
0F00
0F00
0F00
0F00
0F80
07F0
03F0
00F0
ENDCHAR
STARTCHAR bar
ENCODING 124
SWIDTH 279 0
DWIDTH 11 0
BBX 3 37 4 -7
BITMAP
E0
E0
E0
E0
E0
E0
E0
E0
E0
E0
E0
E0
E0
E0
E0
E0
E0
E0
E0
E0
E0
E0
E0
E0
E0
E0
E0
E0
E0
E0
E0
E0
E0
E0
E0
E0
E0
ENDCHAR
STARTCHAR braceright
ENCODING 125
SWIDTH 333 0
DWIDTH 13 0
BBX 12 37 0 -7
BITMAP
F000
FC00
FE00
1F00
0F00
0F00
0F00
0F00
0F00
0F00
0F00
0F00
0F00
0F00
0F00
0F80
07C0
07F0
01F0
07F0
07C0
0F80
0F00
0F00
0F00
0F00
0F00
0F00
0F00
0F00
0F00
0F00
0F00
1F00
FE00
FC00
F000
ENDCHAR
STARTCHAR asciitilde
ENCODING 126
SWIDTH 564 0
DWIDTH 21 0
BBX 18 6 2 8
BITMAP
1E0180
3F83C0
7FE3C0
71FF80
F07F00
601E00
ENDCHAR
STARTCHAR ordmasculine
ENCODING 186
SWIDTH 446 0
DWIDTH 17 0
BBX 14 14 2 12
BITMAP
0FC0
3FF0
7FF8
7878
F03C
E01C
E01C
E01C
E01C
F03C
7878
7FF8
3FF0
0FC0
ENDCHAR
ENDFONT
